<mxfile host="www.draw.io" modified="2019-10-31T10:17:36.790Z" agent="Mozilla/5.0 (Windows NT 6.3; Win64; x64; rv:70.0) Gecko/20100101 Firefox/70.0" etag="XSAbkeih5JXGoI4UFHnE" version="12.1.9" type="github" pages="1">
  <diagram id="PagjJDJrfl8wa27CeTan" name="Page-1">
    <mxGraphModel dx="1408" dy="758" grid="1" gridSize="10" guides="1" tooltips="1" connect="1" arrows="1" fold="1" page="1" pageScale="1" pageWidth="1654" pageHeight="1169" math="0" shadow="0">
      <root>
        <mxCell id="0"/>
        <mxCell id="1" parent="0"/>
        <mxCell id="5U8cR0ArCuf3vfxhjZf6-1" value="&lt;b&gt;&lt;font style=&quot;font-size: 14px&quot;&gt;TicTacToe&lt;/font&gt;&lt;/b&gt;" style="text;html=1;strokeColor=none;fillColor=none;align=center;verticalAlign=middle;whiteSpace=wrap;rounded=0;" parent="1" vertex="1">
          <mxGeometry x="60" y="20" width="100" height="20" as="geometry"/>
        </mxCell>
        <mxCell id="5U8cR0ArCuf3vfxhjZf6-2" value="" style="ellipse;html=1;shape=startState;fillColor=#000000;strokeColor=#ff0000;" parent="1" vertex="1">
          <mxGeometry x="45" y="100" width="30" height="30" as="geometry"/>
        </mxCell>
        <mxCell id="5U8cR0ArCuf3vfxhjZf6-3" value="" style="edgeStyle=orthogonalEdgeStyle;html=1;verticalAlign=bottom;endArrow=open;endSize=8;strokeColor=#ff0000;" parent="1" target="5U8cR0ArCuf3vfxhjZf6-4" edge="1">
          <mxGeometry relative="1" as="geometry">
            <mxPoint x="150" y="115" as="targetPoint"/>
            <mxPoint x="70" y="115" as="sourcePoint"/>
          </mxGeometry>
        </mxCell>
        <mxCell id="5U8cR0ArCuf3vfxhjZf6-4" value="Spielfeld erzeugen" style="rounded=1;whiteSpace=wrap;html=1;" parent="1" vertex="1">
          <mxGeometry x="150" y="85" width="120" height="60" as="geometry"/>
        </mxCell>
        <mxCell id="5U8cR0ArCuf3vfxhjZf6-5" value="" style="strokeWidth=2;html=1;shape=mxgraph.flowchart.annotation_2;align=left;labelPosition=right;pointerEvents=1;direction=south;" parent="1" vertex="1">
          <mxGeometry x="220" y="120" width="15" height="20" as="geometry"/>
        </mxCell>
        <mxCell id="5U8cR0ArCuf3vfxhjZf6-6" value="" style="endArrow=none;html=1;" parent="1" edge="1">
          <mxGeometry width="50" height="50" relative="1" as="geometry">
            <mxPoint x="227" y="130" as="sourcePoint"/>
            <mxPoint x="227" y="140" as="targetPoint"/>
            <Array as="points"/>
          </mxGeometry>
        </mxCell>
        <mxCell id="5U8cR0ArCuf3vfxhjZf6-7" value="&lt;font style=&quot;font-size: 14px&quot;&gt;&lt;b&gt;Spielfeld&lt;/b&gt;&lt;/font&gt;" style="text;html=1;strokeColor=none;fillColor=none;align=center;verticalAlign=middle;whiteSpace=wrap;rounded=0;" parent="1" vertex="1">
          <mxGeometry x="680" y="30" width="130" height="20" as="geometry"/>
        </mxCell>
        <mxCell id="5U8cR0ArCuf3vfxhjZf6-8" value="" style="ellipse;html=1;shape=startState;fillColor=#000000;strokeColor=#ff0000;" parent="1" vertex="1">
          <mxGeometry x="665" y="105" width="30" height="30" as="geometry"/>
        </mxCell>
        <mxCell id="5U8cR0ArCuf3vfxhjZf6-9" value="" style="edgeStyle=orthogonalEdgeStyle;html=1;verticalAlign=bottom;endArrow=open;endSize=8;strokeColor=#ff0000;" parent="1" source="5U8cR0ArCuf3vfxhjZf6-8" target="5U8cR0ArCuf3vfxhjZf6-10" edge="1">
          <mxGeometry relative="1" as="geometry">
            <mxPoint x="770" y="120" as="targetPoint"/>
          </mxGeometry>
        </mxCell>
        <mxCell id="5U8cR0ArCuf3vfxhjZf6-10" value="Array oder Matirx mit 9 Indizes erstellen" style="rounded=1;whiteSpace=wrap;html=1;" parent="1" vertex="1">
          <mxGeometry x="767" y="90" width="120" height="60" as="geometry"/>
        </mxCell>
        <mxCell id="5U8cR0ArCuf3vfxhjZf6-12" value="" style="endArrow=open;endFill=1;endSize=12;html=1;exitX=0.5;exitY=1;exitDx=0;exitDy=0;entryX=0.5;entryY=0;entryDx=0;entryDy=0;" parent="1" source="5U8cR0ArCuf3vfxhjZf6-10" target="5U8cR0ArCuf3vfxhjZf6-13" edge="1">
          <mxGeometry width="160" relative="1" as="geometry">
            <mxPoint x="810" y="240" as="sourcePoint"/>
            <mxPoint x="970" y="240" as="targetPoint"/>
          </mxGeometry>
        </mxCell>
        <mxCell id="5U8cR0ArCuf3vfxhjZf6-13" value="Anordnung des Felds " style="rounded=1;whiteSpace=wrap;html=1;" parent="1" vertex="1">
          <mxGeometry x="767" y="210" width="120" height="60" as="geometry"/>
        </mxCell>
        <mxCell id="5U8cR0ArCuf3vfxhjZf6-14" value="Fertiges leeres Spielfeld" style="rounded=0;whiteSpace=wrap;html=1;" parent="1" vertex="1">
          <mxGeometry x="767" y="330" width="120" height="60" as="geometry"/>
        </mxCell>
        <mxCell id="5U8cR0ArCuf3vfxhjZf6-15" value="" style="endArrow=open;endFill=1;endSize=12;html=1;exitX=0.5;exitY=1;exitDx=0;exitDy=0;" parent="1" source="5U8cR0ArCuf3vfxhjZf6-13" target="5U8cR0ArCuf3vfxhjZf6-14" edge="1">
          <mxGeometry width="160" relative="1" as="geometry">
            <mxPoint x="640" y="320" as="sourcePoint"/>
            <mxPoint x="800" y="320" as="targetPoint"/>
          </mxGeometry>
        </mxCell>
        <mxCell id="5U8cR0ArCuf3vfxhjZf6-16" value="" style="ellipse;html=1;shape=endState;fillColor=#000000;strokeColor=#ff0000;" parent="1" vertex="1">
          <mxGeometry x="812" y="450" width="30" height="30" as="geometry"/>
        </mxCell>
        <mxCell id="5U8cR0ArCuf3vfxhjZf6-17" value="" style="endArrow=open;endFill=1;endSize=12;html=1;exitX=0.5;exitY=1;exitDx=0;exitDy=0;entryX=0.5;entryY=0;entryDx=0;entryDy=0;" parent="1" source="5U8cR0ArCuf3vfxhjZf6-14" target="5U8cR0ArCuf3vfxhjZf6-16" edge="1">
          <mxGeometry width="160" relative="1" as="geometry">
            <mxPoint x="660" y="460" as="sourcePoint"/>
            <mxPoint x="820" y="460" as="targetPoint"/>
          </mxGeometry>
        </mxCell>
        <mxCell id="5U8cR0ArCuf3vfxhjZf6-18" value="" style="rounded=0;whiteSpace=wrap;html=1;" parent="1" vertex="1">
          <mxGeometry x="270" y="103" width="20" height="25" as="geometry"/>
        </mxCell>
        <mxCell id="5U8cR0ArCuf3vfxhjZf6-19" value="" style="endArrow=open;endFill=1;endSize=12;html=1;exitX=1;exitY=0.5;exitDx=0;exitDy=0;entryX=0;entryY=0.5;entryDx=0;entryDy=0;" parent="1" source="5U8cR0ArCuf3vfxhjZf6-18" target="5U8cR0ArCuf3vfxhjZf6-20" edge="1">
          <mxGeometry width="160" relative="1" as="geometry">
            <mxPoint x="300" y="120" as="sourcePoint"/>
            <mxPoint x="360" y="110" as="targetPoint"/>
          </mxGeometry>
        </mxCell>
        <mxCell id="5U8cR0ArCuf3vfxhjZf6-20" value="Ausgabe Spielfeld" style="rounded=1;whiteSpace=wrap;html=1;" parent="1" vertex="1">
          <mxGeometry x="360" y="85.5" width="120" height="60" as="geometry"/>
        </mxCell>
        <mxCell id="5U8cR0ArCuf3vfxhjZf6-21" value="Auswahl Spieler" style="rounded=1;whiteSpace=wrap;html=1;" parent="1" vertex="1">
          <mxGeometry x="360" y="210" width="120" height="60" as="geometry"/>
        </mxCell>
        <mxCell id="5U8cR0ArCuf3vfxhjZf6-22" value="" style="endArrow=open;endFill=1;endSize=12;html=1;exitX=0.5;exitY=1;exitDx=0;exitDy=0;entryX=0.5;entryY=0;entryDx=0;entryDy=0;" parent="1" source="5U8cR0ArCuf3vfxhjZf6-20" target="5U8cR0ArCuf3vfxhjZf6-21" edge="1">
          <mxGeometry width="160" relative="1" as="geometry">
            <mxPoint x="210" y="410" as="sourcePoint"/>
            <mxPoint x="370" y="410" as="targetPoint"/>
          </mxGeometry>
        </mxCell>
        <mxCell id="5U8cR0ArCuf3vfxhjZf6-23" value="" style="strokeWidth=2;html=1;shape=mxgraph.flowchart.annotation_2;align=left;labelPosition=right;pointerEvents=1;direction=south;" parent="1" vertex="1">
          <mxGeometry x="430" y="250" width="15" height="20" as="geometry"/>
        </mxCell>
        <mxCell id="5U8cR0ArCuf3vfxhjZf6-24" value="" style="endArrow=none;html=1;" parent="1" edge="1">
          <mxGeometry width="50" height="50" relative="1" as="geometry">
            <mxPoint x="437" y="260" as="sourcePoint"/>
            <mxPoint x="437" y="270" as="targetPoint"/>
            <Array as="points"/>
          </mxGeometry>
        </mxCell>
        <mxCell id="5U8cR0ArCuf3vfxhjZf6-29" value="" style="rounded=0;whiteSpace=wrap;html=1;" parent="1" vertex="1">
          <mxGeometry x="480" y="227.5" width="20" height="25" as="geometry"/>
        </mxCell>
        <mxCell id="5U8cR0ArCuf3vfxhjZf6-30" value="&lt;b&gt;&lt;font style=&quot;font-size: 14px&quot;&gt;Spielerauswahl&lt;/font&gt;&lt;/b&gt;" style="text;html=1;strokeColor=none;fillColor=none;align=center;verticalAlign=middle;whiteSpace=wrap;rounded=0;" parent="1" vertex="1">
          <mxGeometry x="1110" y="30" width="110" height="20" as="geometry"/>
        </mxCell>
        <mxCell id="5U8cR0ArCuf3vfxhjZf6-31" value="" style="ellipse;html=1;shape=startState;fillColor=#000000;strokeColor=#ff0000;" parent="1" vertex="1">
          <mxGeometry x="1110" y="85" width="30" height="30" as="geometry"/>
        </mxCell>
        <mxCell id="5U8cR0ArCuf3vfxhjZf6-32" value="" style="edgeStyle=orthogonalEdgeStyle;html=1;verticalAlign=bottom;endArrow=open;endSize=8;strokeColor=#ff0000;" parent="1" source="5U8cR0ArCuf3vfxhjZf6-31" target="5U8cR0ArCuf3vfxhjZf6-33" edge="1">
          <mxGeometry relative="1" as="geometry">
            <mxPoint x="1210" y="100" as="targetPoint"/>
          </mxGeometry>
        </mxCell>
        <mxCell id="5U8cR0ArCuf3vfxhjZf6-33" value="Konsoleneingabe 1 || 2" style="rounded=1;whiteSpace=wrap;html=1;" parent="1" vertex="1">
          <mxGeometry x="1210" y="70" width="120" height="60" as="geometry"/>
        </mxCell>
        <mxCell id="5U8cR0ArCuf3vfxhjZf6-34" value="" style="endArrow=open;endFill=1;endSize=12;html=1;exitX=0.5;exitY=1;exitDx=0;exitDy=0;entryX=0.5;entryY=0;entryDx=0;entryDy=0;" parent="1" source="5U8cR0ArCuf3vfxhjZf6-33" target="5U8cR0ArCuf3vfxhjZf6-35" edge="1">
          <mxGeometry width="160" relative="1" as="geometry">
            <mxPoint x="1240" y="190" as="sourcePoint"/>
            <mxPoint x="1270" y="190" as="targetPoint"/>
          </mxGeometry>
        </mxCell>
        <mxCell id="5U8cR0ArCuf3vfxhjZf6-35" value="Auswahl" style="rhombus;whiteSpace=wrap;html=1;fillColor=#ffffc0;strokeColor=#ff0000;" parent="1" vertex="1">
          <mxGeometry x="1230" y="190" width="80" height="40" as="geometry"/>
        </mxCell>
        <mxCell id="5U8cR0ArCuf3vfxhjZf6-36" value="1" style="edgeStyle=orthogonalEdgeStyle;html=1;align=left;verticalAlign=bottom;endArrow=open;endSize=8;strokeColor=#ff0000;" parent="1" source="5U8cR0ArCuf3vfxhjZf6-35" target="5U8cR0ArCuf3vfxhjZf6-38" edge="1">
          <mxGeometry x="-1" relative="1" as="geometry">
            <mxPoint x="1360" y="210" as="targetPoint"/>
          </mxGeometry>
        </mxCell>
        <mxCell id="5U8cR0ArCuf3vfxhjZf6-37" value="2" style="edgeStyle=orthogonalEdgeStyle;html=1;align=left;verticalAlign=top;endArrow=open;endSize=8;strokeColor=#ff0000;" parent="1" source="5U8cR0ArCuf3vfxhjZf6-35" target="5U8cR0ArCuf3vfxhjZf6-41" edge="1">
          <mxGeometry x="-1" relative="1" as="geometry">
            <mxPoint x="1270" y="290" as="targetPoint"/>
          </mxGeometry>
        </mxCell>
        <mxCell id="5U8cR0ArCuf3vfxhjZf6-38" value="Spieler 1" style="rounded=0;whiteSpace=wrap;html=1;" parent="1" vertex="1">
          <mxGeometry x="1360" y="180" width="120" height="60" as="geometry"/>
        </mxCell>
        <mxCell id="5U8cR0ArCuf3vfxhjZf6-39" value="" style="ellipse;html=1;shape=endState;fillColor=#000000;strokeColor=#ff0000;" parent="1" vertex="1">
          <mxGeometry x="1540" y="195" width="30" height="30" as="geometry"/>
        </mxCell>
        <mxCell id="5U8cR0ArCuf3vfxhjZf6-40" value="" style="endArrow=open;endFill=1;endSize=12;html=1;exitX=1;exitY=0.5;exitDx=0;exitDy=0;entryX=0;entryY=0.5;entryDx=0;entryDy=0;" parent="1" source="5U8cR0ArCuf3vfxhjZf6-38" target="5U8cR0ArCuf3vfxhjZf6-39" edge="1">
          <mxGeometry width="160" relative="1" as="geometry">
            <mxPoint x="1430" y="370" as="sourcePoint"/>
            <mxPoint x="1590" y="370" as="targetPoint"/>
          </mxGeometry>
        </mxCell>
        <mxCell id="5U8cR0ArCuf3vfxhjZf6-41" value="Spieler 2" style="rounded=0;whiteSpace=wrap;html=1;" parent="1" vertex="1">
          <mxGeometry x="1210" y="290" width="120" height="60" as="geometry"/>
        </mxCell>
        <mxCell id="5U8cR0ArCuf3vfxhjZf6-42" value="" style="endArrow=open;endFill=1;endSize=12;html=1;exitX=0.5;exitY=1;exitDx=0;exitDy=0;" parent="1" source="5U8cR0ArCuf3vfxhjZf6-41" target="5U8cR0ArCuf3vfxhjZf6-43" edge="1">
          <mxGeometry width="160" relative="1" as="geometry">
            <mxPoint x="1250" y="400" as="sourcePoint"/>
            <mxPoint x="1270" y="410" as="targetPoint"/>
          </mxGeometry>
        </mxCell>
        <mxCell id="5U8cR0ArCuf3vfxhjZf6-43" value="" style="ellipse;html=1;shape=endState;fillColor=#000000;strokeColor=#ff0000;" parent="1" vertex="1">
          <mxGeometry x="1255" y="400" width="30" height="30" as="geometry"/>
        </mxCell>
        <mxCell id="5U8cR0ArCuf3vfxhjZf6-44" value="" style="endArrow=open;endFill=1;endSize=12;html=1;exitX=0.5;exitY=1;exitDx=0;exitDy=0;entryX=0.5;entryY=0;entryDx=0;entryDy=0;" parent="1" source="5U8cR0ArCuf3vfxhjZf6-21" target="5U8cR0ArCuf3vfxhjZf6-45" edge="1">
          <mxGeometry width="160" relative="1" as="geometry">
            <mxPoint x="370" y="340" as="sourcePoint"/>
            <mxPoint x="420" y="320" as="targetPoint"/>
          </mxGeometry>
        </mxCell>
        <mxCell id="5U8cR0ArCuf3vfxhjZf6-45" value="Zugaufforderung des entsprechenden Spielers" style="rounded=1;whiteSpace=wrap;html=1;" parent="1" vertex="1">
          <mxGeometry x="360" y="330" width="120" height="60" as="geometry"/>
        </mxCell>
        <mxCell id="5U8cR0ArCuf3vfxhjZf6-46" value="Tätigung Spielzug" style="rounded=1;whiteSpace=wrap;html=1;" parent="1" vertex="1">
          <mxGeometry x="360" y="450" width="120" height="60" as="geometry"/>
        </mxCell>
        <mxCell id="5U8cR0ArCuf3vfxhjZf6-47" value="" style="endArrow=open;endFill=1;endSize=12;html=1;exitX=0.5;exitY=1;exitDx=0;exitDy=0;entryX=0.5;entryY=0;entryDx=0;entryDy=0;" parent="1" source="5U8cR0ArCuf3vfxhjZf6-45" target="5U8cR0ArCuf3vfxhjZf6-46" edge="1">
          <mxGeometry width="160" relative="1" as="geometry">
            <mxPoint x="220" y="430" as="sourcePoint"/>
            <mxPoint x="380" y="430" as="targetPoint"/>
          </mxGeometry>
        </mxCell>
        <mxCell id="5U8cR0ArCuf3vfxhjZf6-48" value="Prüfung auf Gewinnbedingung" style="rounded=1;whiteSpace=wrap;html=1;" parent="1" vertex="1">
          <mxGeometry x="360" y="770" width="120" height="80" as="geometry"/>
        </mxCell>
        <mxCell id="5U8cR0ArCuf3vfxhjZf6-49" value="" style="endArrow=open;endFill=1;endSize=12;html=1;exitX=0.5;exitY=1;exitDx=0;exitDy=0;entryX=0.5;entryY=0;entryDx=0;entryDy=0;" parent="1" source="5U8cR0ArCuf3vfxhjZf6-46" target="O1LbK02TE7n4aaDQIqhu-1" edge="1">
          <mxGeometry width="160" relative="1" as="geometry">
            <mxPoint x="280" y="530" as="sourcePoint"/>
            <mxPoint x="420" y="560" as="targetPoint"/>
          </mxGeometry>
        </mxCell>
        <mxCell id="5U8cR0ArCuf3vfxhjZf6-50" value="" style="strokeWidth=2;html=1;shape=mxgraph.flowchart.annotation_2;align=left;labelPosition=right;pointerEvents=1;direction=south;" parent="1" vertex="1">
          <mxGeometry x="437.5" y="830" width="15" height="20" as="geometry"/>
        </mxCell>
        <mxCell id="5U8cR0ArCuf3vfxhjZf6-51" value="" style="endArrow=none;html=1;" parent="1" edge="1">
          <mxGeometry width="50" height="50" relative="1" as="geometry">
            <mxPoint x="444" y="840" as="sourcePoint"/>
            <mxPoint x="444" y="850" as="targetPoint"/>
            <Array as="points"/>
          </mxGeometry>
        </mxCell>
        <mxCell id="5U8cR0ArCuf3vfxhjZf6-52" value="&lt;b&gt;&lt;font style=&quot;font-size: 14px&quot;&gt;Gewinnbedingung&lt;/font&gt;&lt;/b&gt;" style="text;html=1;strokeColor=none;fillColor=none;align=center;verticalAlign=middle;whiteSpace=wrap;rounded=0;" parent="1" vertex="1">
          <mxGeometry x="1790" y="30" width="130" height="20" as="geometry"/>
        </mxCell>
        <mxCell id="5U8cR0ArCuf3vfxhjZf6-53" value="" style="ellipse;html=1;shape=startState;fillColor=#000000;strokeColor=#ff0000;" parent="1" vertex="1">
          <mxGeometry x="1780" y="100" width="30" height="30" as="geometry"/>
        </mxCell>
        <mxCell id="5U8cR0ArCuf3vfxhjZf6-54" value="" style="edgeStyle=orthogonalEdgeStyle;html=1;verticalAlign=bottom;endArrow=open;endSize=8;strokeColor=#ff0000;" parent="1" source="5U8cR0ArCuf3vfxhjZf6-53" target="5U8cR0ArCuf3vfxhjZf6-55" edge="1">
          <mxGeometry relative="1" as="geometry">
            <mxPoint x="1880" y="115" as="targetPoint"/>
          </mxGeometry>
        </mxCell>
        <mxCell id="5U8cR0ArCuf3vfxhjZf6-55" value="Überprüfung Array Indizes" style="rounded=1;whiteSpace=wrap;html=1;" parent="1" vertex="1">
          <mxGeometry x="1880" y="85" width="120" height="60" as="geometry"/>
        </mxCell>
        <mxCell id="5U8cR0ArCuf3vfxhjZf6-56" value="Horizontal" style="rounded=1;whiteSpace=wrap;html=1;" parent="1" vertex="1">
          <mxGeometry x="1880" y="200" width="120" height="60" as="geometry"/>
        </mxCell>
        <mxCell id="5U8cR0ArCuf3vfxhjZf6-57" value="" style="endArrow=open;endFill=1;endSize=12;html=1;exitX=0.5;exitY=1;exitDx=0;exitDy=0;" parent="1" source="5U8cR0ArCuf3vfxhjZf6-55" target="5U8cR0ArCuf3vfxhjZf6-56" edge="1">
          <mxGeometry width="160" relative="1" as="geometry">
            <mxPoint x="1740" y="240" as="sourcePoint"/>
            <mxPoint x="1900" y="240" as="targetPoint"/>
          </mxGeometry>
        </mxCell>
        <mxCell id="5U8cR0ArCuf3vfxhjZf6-58" value="horizontal" style="rhombus;whiteSpace=wrap;html=1;fillColor=#ffffc0;strokeColor=#ff0000;" parent="1" vertex="1">
          <mxGeometry x="1900" y="320" width="80" height="40" as="geometry"/>
        </mxCell>
        <mxCell id="5U8cR0ArCuf3vfxhjZf6-59" value="True" style="edgeStyle=orthogonalEdgeStyle;html=1;align=left;verticalAlign=bottom;endArrow=open;endSize=8;strokeColor=#ff0000;" parent="1" source="5U8cR0ArCuf3vfxhjZf6-58" target="5U8cR0ArCuf3vfxhjZf6-66" edge="1">
          <mxGeometry x="-1" relative="1" as="geometry">
            <mxPoint x="2060" y="340" as="targetPoint"/>
          </mxGeometry>
        </mxCell>
        <mxCell id="5U8cR0ArCuf3vfxhjZf6-60" value="False" style="edgeStyle=orthogonalEdgeStyle;html=1;align=left;verticalAlign=top;endArrow=open;endSize=8;strokeColor=#ff0000;" parent="1" source="5U8cR0ArCuf3vfxhjZf6-58" target="5U8cR0ArCuf3vfxhjZf6-69" edge="1">
          <mxGeometry x="-1" relative="1" as="geometry">
            <mxPoint x="1940" y="430" as="targetPoint"/>
          </mxGeometry>
        </mxCell>
        <mxCell id="5U8cR0ArCuf3vfxhjZf6-61" value="" style="endArrow=open;endFill=1;endSize=12;html=1;exitX=0.5;exitY=1;exitDx=0;exitDy=0;entryX=0.5;entryY=0;entryDx=0;entryDy=0;" parent="1" source="5U8cR0ArCuf3vfxhjZf6-56" target="5U8cR0ArCuf3vfxhjZf6-58" edge="1">
          <mxGeometry width="160" relative="1" as="geometry">
            <mxPoint x="1800" y="360" as="sourcePoint"/>
            <mxPoint x="1960" y="360" as="targetPoint"/>
          </mxGeometry>
        </mxCell>
        <mxCell id="5U8cR0ArCuf3vfxhjZf6-66" value="Gewinnmeldung" style="rounded=1;whiteSpace=wrap;html=1;" parent="1" vertex="1">
          <mxGeometry x="2080" y="310" width="110" height="60" as="geometry"/>
        </mxCell>
        <mxCell id="5U8cR0ArCuf3vfxhjZf6-67" value="" style="ellipse;html=1;shape=endState;fillColor=#000000;strokeColor=#ff0000;" parent="1" vertex="1">
          <mxGeometry x="2240" y="325" width="30" height="30" as="geometry"/>
        </mxCell>
        <mxCell id="5U8cR0ArCuf3vfxhjZf6-68" value="" style="endArrow=open;endFill=1;endSize=12;html=1;entryX=0;entryY=0.5;entryDx=0;entryDy=0;" parent="1" source="5U8cR0ArCuf3vfxhjZf6-66" target="5U8cR0ArCuf3vfxhjZf6-67" edge="1">
          <mxGeometry width="160" relative="1" as="geometry">
            <mxPoint x="2180" y="340" as="sourcePoint"/>
            <mxPoint x="2340" y="430" as="targetPoint"/>
          </mxGeometry>
        </mxCell>
        <mxCell id="5U8cR0ArCuf3vfxhjZf6-69" value="Vertikal" style="rounded=1;whiteSpace=wrap;html=1;" parent="1" vertex="1">
          <mxGeometry x="1880" y="430" width="120" height="60" as="geometry"/>
        </mxCell>
        <mxCell id="5U8cR0ArCuf3vfxhjZf6-70" value="" style="endArrow=open;endFill=1;endSize=12;html=1;exitX=0.5;exitY=1;exitDx=0;exitDy=0;entryX=0.5;entryY=0;entryDx=0;entryDy=0;" parent="1" source="5U8cR0ArCuf3vfxhjZf6-69" target="5U8cR0ArCuf3vfxhjZf6-71" edge="1">
          <mxGeometry width="160" relative="1" as="geometry">
            <mxPoint x="1890" y="530" as="sourcePoint"/>
            <mxPoint x="2050" y="530" as="targetPoint"/>
          </mxGeometry>
        </mxCell>
        <mxCell id="5U8cR0ArCuf3vfxhjZf6-71" value="vertikal" style="rhombus;whiteSpace=wrap;html=1;fillColor=#ffffc0;strokeColor=#ff0000;" parent="1" vertex="1">
          <mxGeometry x="1900" y="550" width="80" height="40" as="geometry"/>
        </mxCell>
        <mxCell id="5U8cR0ArCuf3vfxhjZf6-72" value="True" style="edgeStyle=orthogonalEdgeStyle;html=1;align=left;verticalAlign=bottom;endArrow=open;endSize=8;strokeColor=#ff0000;" parent="1" source="5U8cR0ArCuf3vfxhjZf6-71" target="5U8cR0ArCuf3vfxhjZf6-74" edge="1">
          <mxGeometry x="-1" relative="1" as="geometry">
            <mxPoint x="2070" y="570" as="targetPoint"/>
          </mxGeometry>
        </mxCell>
        <mxCell id="5U8cR0ArCuf3vfxhjZf6-73" value="False" style="edgeStyle=orthogonalEdgeStyle;html=1;align=left;verticalAlign=top;endArrow=open;endSize=8;strokeColor=#ff0000;entryX=0.5;entryY=0;entryDx=0;entryDy=0;" parent="1" source="5U8cR0ArCuf3vfxhjZf6-71" target="5U8cR0ArCuf3vfxhjZf6-77" edge="1">
          <mxGeometry x="-1" relative="1" as="geometry">
            <mxPoint x="1940" y="660" as="targetPoint"/>
          </mxGeometry>
        </mxCell>
        <mxCell id="5U8cR0ArCuf3vfxhjZf6-74" value="Gewinnmeldung" style="rounded=1;whiteSpace=wrap;html=1;" parent="1" vertex="1">
          <mxGeometry x="2080" y="540" width="110" height="60" as="geometry"/>
        </mxCell>
        <mxCell id="5U8cR0ArCuf3vfxhjZf6-75" value="" style="endArrow=open;endFill=1;endSize=12;html=1;exitX=1;exitY=0.5;exitDx=0;exitDy=0;entryX=0;entryY=0.5;entryDx=0;entryDy=0;" parent="1" source="5U8cR0ArCuf3vfxhjZf6-74" target="5U8cR0ArCuf3vfxhjZf6-76" edge="1">
          <mxGeometry width="160" relative="1" as="geometry">
            <mxPoint x="2030" y="700" as="sourcePoint"/>
            <mxPoint x="2190" y="700" as="targetPoint"/>
          </mxGeometry>
        </mxCell>
        <mxCell id="5U8cR0ArCuf3vfxhjZf6-76" value="" style="ellipse;html=1;shape=endState;fillColor=#000000;strokeColor=#ff0000;" parent="1" vertex="1">
          <mxGeometry x="2240" y="555" width="30" height="30" as="geometry"/>
        </mxCell>
        <mxCell id="5U8cR0ArCuf3vfxhjZf6-77" value="Diagonal" style="rounded=1;whiteSpace=wrap;html=1;" parent="1" vertex="1">
          <mxGeometry x="1880" y="660" width="120" height="60" as="geometry"/>
        </mxCell>
        <mxCell id="5U8cR0ArCuf3vfxhjZf6-78" value="" style="endArrow=open;endFill=1;endSize=12;html=1;exitX=0.5;exitY=1;exitDx=0;exitDy=0;entryX=0.5;entryY=0;entryDx=0;entryDy=0;" parent="1" source="5U8cR0ArCuf3vfxhjZf6-77" target="5U8cR0ArCuf3vfxhjZf6-79" edge="1">
          <mxGeometry width="160" relative="1" as="geometry">
            <mxPoint x="1900" y="770" as="sourcePoint"/>
            <mxPoint x="2060" y="770" as="targetPoint"/>
          </mxGeometry>
        </mxCell>
        <mxCell id="5U8cR0ArCuf3vfxhjZf6-79" value="diagonal" style="rhombus;whiteSpace=wrap;html=1;fillColor=#ffffc0;strokeColor=#ff0000;" parent="1" vertex="1">
          <mxGeometry x="1900" y="780" width="80" height="40" as="geometry"/>
        </mxCell>
        <mxCell id="5U8cR0ArCuf3vfxhjZf6-80" value="True" style="edgeStyle=orthogonalEdgeStyle;html=1;align=left;verticalAlign=bottom;endArrow=open;endSize=8;strokeColor=#ff0000;entryX=0;entryY=0.5;entryDx=0;entryDy=0;" parent="1" source="5U8cR0ArCuf3vfxhjZf6-79" target="5U8cR0ArCuf3vfxhjZf6-82" edge="1">
          <mxGeometry x="-1" relative="1" as="geometry">
            <mxPoint x="2080" y="800" as="targetPoint"/>
          </mxGeometry>
        </mxCell>
        <mxCell id="5U8cR0ArCuf3vfxhjZf6-81" value="False" style="edgeStyle=orthogonalEdgeStyle;html=1;align=left;verticalAlign=top;endArrow=open;endSize=8;strokeColor=#ff0000;entryX=0.5;entryY=0;entryDx=0;entryDy=0;" parent="1" source="5U8cR0ArCuf3vfxhjZf6-79" target="5U8cR0ArCuf3vfxhjZf6-86" edge="1">
          <mxGeometry x="-1" relative="1" as="geometry">
            <mxPoint x="1940" y="890" as="targetPoint"/>
          </mxGeometry>
        </mxCell>
        <mxCell id="5U8cR0ArCuf3vfxhjZf6-82" value="Gewinnmeldung" style="rounded=1;whiteSpace=wrap;html=1;" parent="1" vertex="1">
          <mxGeometry x="2080" y="770" width="110" height="60" as="geometry"/>
        </mxCell>
        <mxCell id="5U8cR0ArCuf3vfxhjZf6-83" value="" style="endArrow=open;endFill=1;endSize=12;html=1;exitX=1;exitY=0.5;exitDx=0;exitDy=0;entryX=0;entryY=0.5;entryDx=0;entryDy=0;" parent="1" source="5U8cR0ArCuf3vfxhjZf6-82" target="5U8cR0ArCuf3vfxhjZf6-84" edge="1">
          <mxGeometry width="160" relative="1" as="geometry">
            <mxPoint x="2140" y="890" as="sourcePoint"/>
            <mxPoint x="2300" y="890" as="targetPoint"/>
          </mxGeometry>
        </mxCell>
        <mxCell id="5U8cR0ArCuf3vfxhjZf6-84" value="" style="ellipse;html=1;shape=endState;fillColor=#000000;strokeColor=#ff0000;" parent="1" vertex="1">
          <mxGeometry x="2240" y="785" width="30" height="30" as="geometry"/>
        </mxCell>
        <mxCell id="5U8cR0ArCuf3vfxhjZf6-86" value="" style="ellipse;html=1;shape=endState;fillColor=#000000;strokeColor=#ff0000;" parent="1" vertex="1">
          <mxGeometry x="1925" y="890" width="30" height="30" as="geometry"/>
        </mxCell>
        <mxCell id="5U8cR0ArCuf3vfxhjZf6-90" value="" style="endArrow=open;endFill=1;endSize=12;html=1;exitX=0.5;exitY=1;exitDx=0;exitDy=0;entryX=0.5;entryY=0;entryDx=0;entryDy=0;" parent="1" source="5U8cR0ArCuf3vfxhjZf6-48" target="5U8cR0ArCuf3vfxhjZf6-93" edge="1">
          <mxGeometry width="160" relative="1" as="geometry">
            <mxPoint x="720" y="980" as="sourcePoint"/>
            <mxPoint x="460" y="1000" as="targetPoint"/>
          </mxGeometry>
        </mxCell>
        <mxCell id="5U8cR0ArCuf3vfxhjZf6-93" value="Eine Gewinnbedingung" style="rhombus;whiteSpace=wrap;html=1;fillColor=#ffffc0;strokeColor=#ff0000;" parent="1" vertex="1">
          <mxGeometry x="335" y="910" width="170" height="80" as="geometry"/>
        </mxCell>
        <mxCell id="5U8cR0ArCuf3vfxhjZf6-94" value="True" style="edgeStyle=orthogonalEdgeStyle;html=1;align=left;verticalAlign=bottom;endArrow=open;endSize=8;strokeColor=#ff0000;entryX=0;entryY=0.5;entryDx=0;entryDy=0;" parent="1" source="5U8cR0ArCuf3vfxhjZf6-93" target="5U8cR0ArCuf3vfxhjZf6-96" edge="1">
          <mxGeometry x="-1" relative="1" as="geometry">
            <mxPoint x="610" y="1030" as="targetPoint"/>
          </mxGeometry>
        </mxCell>
        <mxCell id="5U8cR0ArCuf3vfxhjZf6-95" value="&lt;div&gt;False&lt;/div&gt;&lt;div&gt;&lt;br&gt;&lt;/div&gt;" style="edgeStyle=orthogonalEdgeStyle;html=1;align=left;verticalAlign=top;endArrow=open;endSize=8;strokeColor=#ff0000;entryX=1;entryY=0.5;entryDx=0;entryDy=0;" parent="1" source="5U8cR0ArCuf3vfxhjZf6-93" target="5U8cR0ArCuf3vfxhjZf6-99" edge="1">
          <mxGeometry x="-0.1765" relative="1" as="geometry">
            <mxPoint x="290" y="1030" as="targetPoint"/>
            <mxPoint as="offset"/>
          </mxGeometry>
        </mxCell>
        <mxCell id="5U8cR0ArCuf3vfxhjZf6-96" value="" style="ellipse;html=1;shape=endState;fillColor=#000000;strokeColor=#ff0000;" parent="1" vertex="1">
          <mxGeometry x="590" y="935" width="30" height="30" as="geometry"/>
        </mxCell>
        <mxCell id="5U8cR0ArCuf3vfxhjZf6-99" value="Überprüfung Spielfeld voll" style="rounded=1;whiteSpace=wrap;html=1;" parent="1" vertex="1">
          <mxGeometry x="137.5" y="920" width="120" height="60" as="geometry"/>
        </mxCell>
        <mxCell id="5U8cR0ArCuf3vfxhjZf6-102" value="Feld voll" style="rhombus;whiteSpace=wrap;html=1;fillColor=#ffffc0;strokeColor=#ff0000;" parent="1" vertex="1">
          <mxGeometry x="5" y="930" width="80" height="40" as="geometry"/>
        </mxCell>
        <mxCell id="5U8cR0ArCuf3vfxhjZf6-103" value="True" style="edgeStyle=orthogonalEdgeStyle;html=1;align=left;verticalAlign=bottom;endArrow=open;endSize=8;strokeColor=#ff0000;entryX=0.5;entryY=0;entryDx=0;entryDy=0;" parent="1" source="5U8cR0ArCuf3vfxhjZf6-102" target="5U8cR0ArCuf3vfxhjZf6-107" edge="1">
          <mxGeometry x="-0.0769" y="15" relative="1" as="geometry">
            <mxPoint x="45" y="1050" as="targetPoint"/>
            <mxPoint as="offset"/>
          </mxGeometry>
        </mxCell>
        <mxCell id="5U8cR0ArCuf3vfxhjZf6-104" value="False" style="edgeStyle=orthogonalEdgeStyle;html=1;align=left;verticalAlign=top;endArrow=open;endSize=8;strokeColor=#ff0000;" parent="1" source="5U8cR0ArCuf3vfxhjZf6-102" target="5U8cR0ArCuf3vfxhjZf6-20" edge="1">
          <mxGeometry x="0.4081" y="-730" relative="1" as="geometry">
            <mxPoint x="362" y="130" as="targetPoint"/>
            <Array as="points">
              <mxPoint x="45" y="160"/>
              <mxPoint x="300" y="160"/>
              <mxPoint x="300" y="130"/>
            </Array>
            <mxPoint as="offset"/>
          </mxGeometry>
        </mxCell>
        <mxCell id="5U8cR0ArCuf3vfxhjZf6-106" value="" style="endArrow=open;endFill=1;endSize=12;html=1;exitX=0;exitY=0.5;exitDx=0;exitDy=0;entryX=1;entryY=0.5;entryDx=0;entryDy=0;" parent="1" source="5U8cR0ArCuf3vfxhjZf6-99" target="5U8cR0ArCuf3vfxhjZf6-102" edge="1">
          <mxGeometry width="160" relative="1" as="geometry">
            <mxPoint x="130" y="895" as="sourcePoint"/>
            <mxPoint x="85" y="815" as="targetPoint"/>
          </mxGeometry>
        </mxCell>
        <mxCell id="5U8cR0ArCuf3vfxhjZf6-107" value="Ausgabe unentschieden" style="rounded=1;whiteSpace=wrap;html=1;" parent="1" vertex="1">
          <mxGeometry y="1035" width="90" height="60" as="geometry"/>
        </mxCell>
        <mxCell id="5U8cR0ArCuf3vfxhjZf6-108" value="" style="ellipse;html=1;shape=endState;fillColor=#000000;strokeColor=#ff0000;" parent="1" vertex="1">
          <mxGeometry x="30" y="1160" width="30" height="30" as="geometry"/>
        </mxCell>
        <mxCell id="5U8cR0ArCuf3vfxhjZf6-109" value="" style="endArrow=open;endFill=1;endSize=12;html=1;exitX=0.5;exitY=1;exitDx=0;exitDy=0;entryX=0.5;entryY=0;entryDx=0;entryDy=0;" parent="1" source="5U8cR0ArCuf3vfxhjZf6-107" target="5U8cR0ArCuf3vfxhjZf6-108" edge="1">
          <mxGeometry width="160" relative="1" as="geometry">
            <mxPoint x="120" y="1150" as="sourcePoint"/>
            <mxPoint x="280" y="1150" as="targetPoint"/>
          </mxGeometry>
        </mxCell>
        <mxCell id="O1LbK02TE7n4aaDQIqhu-1" value="Kontrolle ob gewählter Indize schon besetzt" style="rounded=1;whiteSpace=wrap;html=1;" parent="1" vertex="1">
          <mxGeometry x="360" y="560" width="120" height="60" as="geometry"/>
        </mxCell>
        <mxCell id="O1LbK02TE7n4aaDQIqhu-2" value="Indize besetzt" style="rhombus;whiteSpace=wrap;html=1;fillColor=#ffffc0;strokeColor=#ff0000;" parent="1" vertex="1">
          <mxGeometry x="380" y="670" width="80" height="40" as="geometry"/>
        </mxCell>
        <mxCell id="O1LbK02TE7n4aaDQIqhu-3" value="False" style="edgeStyle=orthogonalEdgeStyle;html=1;align=left;verticalAlign=bottom;endArrow=open;endSize=8;strokeColor=#ff0000;entryX=0.5;entryY=0;entryDx=0;entryDy=0;" parent="1" source="O1LbK02TE7n4aaDQIqhu-2" target="5U8cR0ArCuf3vfxhjZf6-48" edge="1">
          <mxGeometry x="-0.3333" y="10" relative="1" as="geometry">
            <mxPoint x="420" y="760" as="targetPoint"/>
            <mxPoint as="offset"/>
          </mxGeometry>
        </mxCell>
        <mxCell id="O1LbK02TE7n4aaDQIqhu-4" value="True" style="edgeStyle=orthogonalEdgeStyle;html=1;align=left;verticalAlign=top;endArrow=open;endSize=8;strokeColor=#ff0000;entryX=0;entryY=0.5;entryDx=0;entryDy=0;exitX=0;exitY=0.5;exitDx=0;exitDy=0;" parent="1" source="O1LbK02TE7n4aaDQIqhu-2" target="5U8cR0ArCuf3vfxhjZf6-45" edge="1">
          <mxGeometry x="-0.8824" relative="1" as="geometry">
            <mxPoint x="280" y="690" as="targetPoint"/>
            <Array as="points">
              <mxPoint x="280" y="690"/>
              <mxPoint x="280" y="360"/>
            </Array>
            <mxPoint as="offset"/>
          </mxGeometry>
        </mxCell>
        <mxCell id="O1LbK02TE7n4aaDQIqhu-5" value="" style="endArrow=open;endFill=1;endSize=12;html=1;exitX=0.5;exitY=1;exitDx=0;exitDy=0;entryX=0.5;entryY=0;entryDx=0;entryDy=0;" parent="1" source="O1LbK02TE7n4aaDQIqhu-1" target="O1LbK02TE7n4aaDQIqhu-2" edge="1">
          <mxGeometry width="160" relative="1" as="geometry">
            <mxPoint x="200" y="650" as="sourcePoint"/>
            <mxPoint x="360" y="650" as="targetPoint"/>
          </mxGeometry>
        </mxCell>
      </root>
    </mxGraphModel>
  </diagram>
</mxfile>
